  0
SECTION
  2
HEADER
  9
$ACADVER
  1
AC1009
  9
$INSBASE
 10
0.0
 20
0.0
 30
0.0
  9
$EXTMIN
 10
-0.0000001286582005
 20
-0.0000001502173177
 30
0.0
  9
$EXTMAX
 10
140.0
 20
62.099999999999987
 30
0.0
  9
$LIMMIN
 10
0.0
 20
0.0
  9
$LIMMAX
 10
297.0
 20
210.0
  9
$ORTHOMODE
 70
     0
  9
$REGENMODE
 70
     1
  9
$FILLMODE
 70
     1
  9
$QTEXTMODE
 70
     0
  9
$MIRRTEXT
 70
     1
  9
$DRAGMODE
 70
     2
  9
$LTSCALE
 40
1.0
  9
$OSMODE
 70
    57
  9
$ATTMODE
 70
     1
  9
$TEXTSIZE
 40
6.4000000000000012
  9
$TRACEWID
 40
0.05
  9
$TEXTSTYLE
  7
STANDARD
  9
$CLAYER
  8
0
  9
$CELTYPE
  6
CONTINUOUS
  9
$CECOLOR
 62
     7
  9
$DIMSCALE
 40
1.0
  9
$DIMASZ
 40
3.0
  9
$DIMEXO
 40
1.0
  9
$DIMDLI
 40
0.0
  9
$DIMRND
 40
0.0
  9
$DIMDLE
 40
0.0
  9
$DIMEXE
 40
1.0
  9
$DIMTP
 40
0.0
  9
$DIMTM
 40
0.0
  9
$DIMTXT
 40
3.2000000000000002
  9
$DIMCEN
 40
0.0
  9
$DIMTSZ
 40
0.0
  9
$DIMTOL
 70
     0
  9
$DIMLIM
 70
     0
  9
$DIMTIH
 70
     0
  9
$DIMTOH
 70
     0
  9
$DIMSE1
 70
     0
  9
$DIMSE2
 70
     0
  9
$DIMTAD
 70
     1
  9
$DIMZIN
 70
     8
  9
$DIMBLK
  1

  9
$DIMASO
 70
     1
  9
$DIMSHO
 70
     1
  9
$DIMPOST
  1

  9
$DIMAPOST
  1

  9
$DIMALT
 70
     0
  9
$DIMALTD
 70
     2
  9
$DIMALTF
 40
0.04
  9
$DIMLFAC
 40
1.0
  9
$DIMTOFL
 70
     1
  9
$DIMTVP
 40
1.0
  9
$DIMTIX
 70
     1
  9
$DIMSOXD
 70
     0
  9
$DIMSAH
 70
     0
  9
$DIMBLK1
  1

  9
$DIMBLK2
  1

  9
$DIMSTYLE
  2
MISUMI
  9
$DIMCLRD
 70
     0
  9
$DIMCLRE
 70
     0
  9
$DIMCLRT
 70
     0
  9
$DIMTFAC
 40
0.6
  9
$DIMGAP
 40
1.0
  9
$LUNITS
 70
     2
  9
$LUPREC
 70
     4
  9
$SKETCHINC
 40
0.1
  9
$FILLETRAD
 40
0.0
  9
$AUNITS
 70
     0
  9
$AUPREC
 70
     0
  9
$MENU
  1
acad
  9
$ELEVATION
 40
0.0
  9
$PELEVATION
 40
0.0
  9
$THICKNESS
 40
0.0
  9
$LIMCHECK
 70
     0
  9
$BLIPMODE
 70
     1
  9
$CHAMFERA
 40
0.5
  9
$CHAMFERB
 40
0.5
  9
$SKPOLY
 70
     0
  9
$TDCREATE
 40
2451464.6006649309
  9
$TDUPDATE
 40
2453776.702123472
  9
$TDINDWG
 40
0.1627118171
  9
$TDUSRTIMER
 40
0.1627096528
  9
$USRTIMER
 70
     1
  9
$ANGBASE
 50
0.0
  9
$ANGDIR
 70
     0
  9
$PDMODE
 70
     0
  9
$PDSIZE
 40
0.0
  9
$PLINEWID
 40
0.0
  9
$COORDS
 70
     0
  9
$SPLFRAME
 70
     0
  9
$SPLINETYPE
 70
     6
  9
$SPLINESEGS
 70
     8
  9
$ATTDIA
 70
     0
  9
$ATTREQ
 70
     1
  9
$HANDLING
 70
     1
  9
$HANDSEED
  5
1E64
  9
$SURFTAB1
 70
     6
  9
$SURFTAB2
 70
     6
  9
$SURFTYPE
 70
     6
  9
$SURFU
 70
     6
  9
$SURFV
 70
     6
  9
$UCSNAME
  2

  9
$UCSORG
 10
0.0
 20
0.0
 30
0.0
  9
$UCSXDIR
 10
1.0
 20
0.0
 30
0.0
  9
$UCSYDIR
 10
0.0
 20
1.0
 30
0.0
  9
$PUCSNAME
  2

  9
$PUCSORG
 10
0.0
 20
0.0
 30
0.0
  9
$PUCSXDIR
 10
1.0
 20
0.0
 30
0.0
  9
$PUCSYDIR
 10
0.0
 20
1.0
 30
0.0
  9
$USERI1
 70
     0
  9
$USERI2
 70
     0
  9
$USERI3
 70
     0
  9
$USERI4
 70
     0
  9
$USERI5
 70
     0
  9
$USERR1
 40
0.0
  9
$USERR2
 40
0.0
  9
$USERR3
 40
0.0
  9
$USERR4
 40
0.0
  9
$USERR5
 40
0.0
  9
$WORLDVIEW
 70
     1
  9
$SHADEDGE
 70
     3
  9
$SHADEDIF
 70
    70
  9
$TILEMODE
 70
     1
  9
$MAXACTVP
 70
    16
  9
$PLIMCHECK
 70
     0
  9
$PEXTMIN
 10
1.0000000000000000E+020
 20
1.0000000000000000E+020
 30
1.0000000000000000E+020
  9
$PEXTMAX
 10
-1.0000000000000000E+020
 20
-1.0000000000000000E+020
 30
-1.0000000000000000E+020
  9
$PLIMMIN
 10
0.0
 20
0.0
  9
$PLIMMAX
 10
12.0
 20
9.0
  9
$UNITMODE
 70
     0
  9
$VISRETAIN
 70
     0
  9
$PLINEGEN
 70
     0
  9
$PSLTSCALE
 70
     1
  0
ENDSEC
  0
SECTION
  2
TABLES
  0
TABLE
  2
VPORT
 70
     2
  0
VPORT
  2
*ACTIVE
 70
     0
 10
0.0
 20
0.0
 11
1.0
 21
1.0
 12
70.002194367363742
 22
31.05408480220262
 13
0.0
 23
0.0
 14
10.0
 24
10.0
 15
10.0
 25
10.0
 16
0.0
 26
0.0
 36
1.0
 17
0.0
 27
0.0
 37
0.0
 40
89.509031560689877
 41
1.5717852684144811
 42
50.0
 43
0.0
 44
0.0
 50
0.0
 51
0.0
 71
     0
 72
   100
 73
     1
 74
     0
 75
     0
 76
     0
 77
     0
 78
     0
  0
ENDTAB
  0
TABLE
  2
LTYPE
 70
     2
  0
LTYPE
  2
CONTINUOUS
 70
     0
  3
Solid line
 72
    65
 73
     0
 40
0.0
  0
LTYPE
  2
CENTER
 70
     0
  3
Center ____ _ ____ _ ____ _ ____ _ ____ _ ____
 72
    65
 73
     4
 40
2.0
 49
1.25
 49
-0.25
 49
0.25
 49
-0.25
  0
ENDTAB
  0
TABLE
  2
LAYER
 70
     2
  0
LAYER
  2
0
 70
     0
 62
     7
  6
CONTINUOUS
  0
LAYER
  2
CENTER
 70
     0
 62
     1
  6
CENTER
  0
ENDTAB
  0
TABLE
  2
STYLE
 70
     1
  0
STYLE
  2
STANDARD
 70
     0
 40
0.0
 41
1.0
 50
0.0
 71
     0
 42
6.4000000000000012
  3
txt
  4

  0
ENDTAB
  0
TABLE
  2
VIEW
 70
     0
  0
ENDTAB
  0
TABLE
  2
UCS
 70
     0
  0
ENDTAB
  0
TABLE
  2
APPID
 70
     2
  0
APPID
  2
ACAD
 70
     0
  0
APPID
  2
ACAD_DSTYLE_DIMTEXT_FILL
 70
     0
  0
ENDTAB
  0
TABLE
  2
DIMSTYLE
 70
     1
  0
DIMSTYLE
  2
MISUMI
 70
     0
  3

  4

  5

  6

  7

 40
1.0
 41
3.0
 42
1.0
 43
0.0
 44
1.0
 45
0.0
 46
0.0
 47
0.0
 48
0.0
140
3.2000000000000002
141
0.0
142
0.0
143
0.04
144
1.0
145
1.0
146
0.6
147
1.0
 71
     0
 72
     0
 73
     0
 74
     0
 75
     0
 76
     0
 77
     1
 78
     8
170
     0
171
     2
172
     1
173
     0
174
     1
175
     0
176
     0
177
     0
178
     0
  0
ENDTAB
  0
ENDSEC
  0
SECTION
  2
BLOCKS
  0
BLOCK
  8
0
  2
$MODEL_SPACE
 70
     0
 10
0.0
 20
0.0
 30
0.0
  3
$MODEL_SPACE
  1

  0
ENDBLK
  5
1E09
  8
0
  0
BLOCK
 67
     1
  8
0
  2
$PAPER_SPACE
 70
     0
 10
0.0
 20
0.0
 30
0.0
  3
$PAPER_SPACE
  1

  0
ENDBLK
  5
1E05
 67
     1
  8
0
  0
ENDSEC
  0
SECTION
  2
ENTITIES
  0
LINE
  5
457
  8
CENTER
  6
CENTER
 62
     1
 10
50.000000000000071
 20
62.099999999999987
 30
0.0
 11
50.000000000000071
 21
37.900000000000169
 31
0.0
  0
LINE
  5
458
  8
0
  6
CONTINUOUS
 62
     7
 10
57.060653999999921
 20
56.000002999999992
 30
0.0
 11
54.000000000000092
 21
52.939340099999988
 31
0.0
  0
LINE
  5
459
  8
0
  6
CONTINUOUS
 62
     7
 10
58.0
 20
56.0
 30
0.0
 11
58.0
 21
53.0
 31
0.0
  0
LINE
  5
45A
  8
0
  6
CONTINUOUS
 62
     7
 10
56.000000000000007
 20
57.060668999999777
 30
0.0
 11
52.939330800000022
 21
53.999999999999993
 31
0.0
  0
LINE
  5
45B
  8
0
  6
CONTINUOUS
 62
     7
 10
42.000000000000092
 20
56.0
 30
0.0
 11
42.000000000000092
 21
53.0
 31
0.0
  0
LINE
  5
45C
  8
0
  6
CONTINUOUS
 62
     7
 10
42.939320000000073
 20
56.000002999999992
 30
0.0
 11
46.000000000000057
 21
52.939329650022621
 31
0.0
  0
LINE
  5
45D
  8
0
  6
CONTINUOUS
 62
     7
 10
44.000000000000078
 20
57.060643499999848
 30
0.0
 11
47.060643450000057
 21
54.0
 31
0.0
  0
LINE
  5
45E
  8
0
  6
CONTINUOUS
 62
     7
 10
59.999999999999922
 20
59.0
 30
0.0
 11
59.999999999999922
 21
53.299999950000078
 31
0.0
  0
LINE
  5
45F
  8
0
  6
CONTINUOUS
 62
     7
 10
40.000000000000071
 20
59.0
 30
0.0
 11
40.000000000000071
 21
53.299999950000078
 31
0.0
  0
TEXT
  5
460
  8
0
  6
CONTINUOUS
 62
     7
 10
-0.0000001286582005
 20
7.750804661659572
 30
0.0
 40
4.0
  1
HFSP5-2020-50
  0
TEXT
  5
461
  8
0
  6
CONTINUOUS
 62
     7
 10
-0.0000001286582005
 20
-0.0000001502173177
 30
0.0
 40
4.0
  1
HP52020
  0
LINE
  5
462
  8
CENTER
  6
CENTER
 62
     1
 10
37.500000000000071
 20
50.0
 30
0.0
 11
62.499999999999922
 21
50.0
 31
0.0
  0
LINE
  5
463
  8
0
  6
CONTINUOUS
 62
     7
 10
57.06065349999993
 20
43.999990000000011
 30
0.0
 11
54.000000000000092
 21
47.060651800000031
 31
0.0
  0
LINE
  5
464
  8
0
  6
CONTINUOUS
 62
     7
 10
53.000000000000057
 20
40.400000000000112
 30
0.0
 11
59.799999999999862
 21
40.400000000000041
 31
0.0
  0
LINE
  5
465
  8
0
  6
CONTINUOUS
 62
     7
 10
42.939331500000073
 20
44.00000100000009
 30
0.0
 11
46.000000000000092
 21
47.060662750000112
 31
0.0
  0
LINE
  5
466
  8
0
  6
CONTINUOUS
 62
     7
 10
44.000000000000078
 20
42.000000000000078
 30
0.0
 11
47.000000000000092
 21
42.000000000000078
 31
0.0
  0
LINE
  5
467
  8
0
  6
CONTINUOUS
 62
     7
 10
43.999992000000091
 20
42.93934050000005
 30
0.0
 11
47.060651100000342
 21
46.0
 31
0.0
  0
LINE
  5
468
  8
0
  6
CONTINUOUS
 62
     7
 10
40.200000000000117
 20
40.40000000000002
 30
0.0
 11
47.000000000000092
 21
40.400000000000119
 31
0.0
  0
ARC
  5
469
  8
0
  6
CONTINUOUS
 62
     7
 10
40.300000000000097
 20
46.700000050000057
 30
0.0
 40
0.30000001
 50
90.000003000000007
 51
180.00001
  0
LINE
  5
46A
  8
0
  6
CONTINUOUS
 62
     7
 10
42.000000000000092
 20
44.000000000000021
 30
0.0
 11
42.000000000000092
 21
47.000000000000099
 31
0.0
  0
LINE
  5
46B
  8
0
  6
CONTINUOUS
 62
     7
 10
44.000000000000078
 20
42.939339500000067
 30
0.0
 11
44.000000000000078
 21
42.000000000000078
 31
0.0
  0
LINE
  5
46C
  8
0
  6
CONTINUOUS
 62
     7
 10
40.000000000000071
 20
46.700000050000057
 30
0.0
 11
40.000000000000071
 21
41.000000000000071
 31
0.0
  0
LINE
  5
46F
  8
0
  6
CONTINUOUS
 62
     7
 10
43.850000025000128
 20
40.400000000000119
 30
0.0
 11
43.850100025000089
 21
40.400000000000119
 31
0.0
  0
LINE
  5
470
  8
0
  6
CONTINUOUS
 62
     7
 10
42.000000000000092
 20
44.000000000000021
 30
0.0
 11
42.939331000000067
 21
44.000000000000021
 31
0.0
  0
LINE
  5
471
  8
0
  6
CONTINUOUS
 62
     7
 10
40.300000000000097
 20
47.000000000000099
 30
0.0
 11
42.000000000000092
 21
47.000000000000099
 31
0.0
  0
LINE
  5
472
  8
0
  6
CONTINUOUS
 62
     7
 10
40.300000000000097
 20
53.0
 30
0.0
 11
42.000000000000092
 21
53.0
 31
0.0
  0
ARC
  5
473
  8
0
  6
CONTINUOUS
 62
     7
 10
40.300000000000097
 20
53.299999950000078
 30
0.0
 40
0.30000001
 50
179.99998999999991
 51
270.0
  0
LINE
  5
476
  8
0
  6
CONTINUOUS
 62
     7
 10
47.000000000000092
 20
40.400000000000119
 30
0.0
 11
47.000000000000092
 21
42.000000000000078
 31
0.0
  0
LINE
  5
47A
  8
0
  6
CONTINUOUS
 62
     7
 10
56.000000000000007
 20
42.939343500000092
 30
0.0
 11
56.000000000000007
 21
42.000000000000078
 31
0.0
  0
LINE
  5
47B
  8
0
  6
CONTINUOUS
 62
     7
 10
56.000000000000007
 20
42.000000000000078
 30
0.0
 11
53.000000000000057
 21
42.000000000000078
 31
0.0
  0
LINE
  5
47D
  8
0
  6
CONTINUOUS
 62
     7
 10
53.000000000000057
 20
40.400000000000112
 30
0.0
 11
53.000000000000057
 21
42.000000000000078
 31
0.0
  0
LINE
  5
47E
  8
0
  6
CONTINUOUS
 62
     7
 10
55.99998249999993
 20
42.93934050000005
 30
0.0
 11
52.939322699999281
 21
46.0
 31
0.0
  0
CIRCLE
  5
47F
  8
0
  6
CONTINUOUS
 62
     7
 10
50.000000000000071
 20
50.0
 30
0.0
 40
2.099999899999998
  0
ARC
  5
48D
  8
0
  6
CONTINUOUS
 62
     7
 10
59.699999999999889
 20
46.700000050000057
 30
0.0
 40
0.30000001
 50
0.0
 51
90.000003000000007
  0
LINE
  5
48E
  8
0
  6
CONTINUOUS
 62
     7
 10
58.0
 20
44.000000000000021
 30
0.0
 11
58.0
 21
47.000000000000099
 31
0.0
  0
LINE
  5
48F
  8
0
  6
CONTINUOUS
 62
     7
 10
59.999999999999922
 20
46.700000050000057
 30
0.0
 11
59.999999999999922
 21
41.000000000000071
 31
0.0
  0
LINE
  5
491
  8
0
  6
CONTINUOUS
 62
     7
 10
57.060668999999933
 20
44.000000000000021
 30
0.0
 11
58.0
 21
44.000000000000021
 31
0.0
  0
LINE
  5
492
  8
0
  6
CONTINUOUS
 62
     7
 10
59.699999999999889
 20
47.000000000000099
 30
0.0
 11
58.0
 21
47.000000000000099
 31
0.0
  0
LINE
  5
493
  8
0
  6
CONTINUOUS
 62
     7
 10
59.699999999999889
 20
53.0
 30
0.0
 11
58.0
 21
53.0
 31
0.0
  0
ARC
  5
494
  8
0
  6
CONTINUOUS
 62
     7
 10
59.699999999999889
 20
53.299999950000078
 30
0.0
 40
0.30000001
 50
270.0
 51
0.0
  0
LINE
  5
495
  8
0
  6
CONTINUOUS
 62
     7
 10
53.000000000000057
 20
59.599999999999987
 30
0.0
 11
59.799999999999933
 21
59.599999999999987
 31
0.0
  0
LINE
  5
496
  8
0
  6
CONTINUOUS
 62
     7
 10
44.000000000000078
 20
58.0
 30
0.0
 11
47.000000000000092
 21
58.0
 31
0.0
  0
LINE
  5
497
  8
0
  6
CONTINUOUS
 62
     7
 10
40.200000000000067
 20
59.599999999999987
 30
0.0
 11
47.000000000000092
 21
59.599999999999987
 31
0.0
  0
LINE
  5
499
  8
0
  6
CONTINUOUS
 62
     7
 10
42.000000000000092
 20
56.0
 30
0.0
 11
42.939331000000067
 21
56.0
 31
0.0
  0
LINE
  5
49A
  8
0
  6
CONTINUOUS
 62
     7
 10
44.000000000000078
 20
58.0
 30
0.0
 11
44.000000000000078
 21
57.060643499999848
 31
0.0
  0
LINE
  5
49B
  8
0
  6
CONTINUOUS
 62
     7
 10
47.000000000000092
 20
59.599999999999987
 30
0.0
 11
47.000000000000092
 21
58.0
 31
0.0
  0
LINE
  5
49D
  8
0
  6
CONTINUOUS
 62
     7
 10
53.000000000000057
 20
59.599999999999987
 30
0.0
 11
53.000000000000057
 21
58.0
 31
0.0
  0
LINE
  5
49E
  8
0
  6
CONTINUOUS
 62
     7
 10
56.000000000000007
 20
58.0
 30
0.0
 11
53.000000000000057
 21
58.0
 31
0.0
  0
LINE
  5
49F
  8
0
  6
CONTINUOUS
 62
     7
 10
56.000000000000007
 20
58.0
 30
0.0
 11
56.000000000000007
 21
57.060668999999777
 31
0.0
  0
LINE
  5
4A2
  8
0
  6
CONTINUOUS
 62
     7
 10
57.06065349999993
 20
56.0
 30
0.0
 11
58.0
 21
56.0
 31
0.0
  0
LINE
  5
4A3
  8
0
  6
CONTINUOUS
 62
     7
 10
135.0
 20
40.399999999999991
 30
0.0
 11
135.0
 21
59.599999999999987
 31
0.0
  0
LINE
  5
4A4
  8
0
  6
CONTINUOUS
 62
     7
 10
84.999999999999915
 20
59.599999999999987
 30
0.0
 11
84.999999999999915
 21
40.399999999999977
 31
0.0
  0
LINE
  5
4F8
  8
CENTER
  6
CENTER
 62
     1
 10
79.999999999999901
 20
50.0
 30
0.0
 11
140.0
 21
50.0
 31
0.0
  0
LINE
  5
D03
  8
0
  6
CONTINUOUS
 62
     7
 10
46.000000000000057
 20
52.939329650022621
 30
0.0
 11
46.000000000000092
 21
50.519615242270568
 31
0.0
  0
LINE
  5
D04
  8
0
  6
CONTINUOUS
 62
     7
 10
54.000000000000092
 20
52.939340099999988
 30
0.0
 11
54.000000000000092
 21
50.519628117270749
 31
0.0
  0
LINE
  5
D05
  8
0
  6
CONTINUOUS
 62
     7
 10
47.060643450000057
 20
54.0
 30
0.0
 11
49.480371882729379
 21
54.000000000000007
 31
0.0
  0
LINE
  5
D06
  8
0
  6
CONTINUOUS
 62
     7
 10
47.060651100000342
 20
46.0
 30
0.0
 11
49.480384757729283
 21
46.0
 31
0.0
  0
LINE
  5
F11
  8
0
  6
CONTINUOUS
 62
     7
 10
49.999987125000047
 20
53.700000000000003
 30
0.0
 11
49.480371882729379
 21
53.999999999999993
 31
0.0
  0
LINE
  5
F12
  8
0
  6
CONTINUOUS
 62
     7
 10
50.000000000000071
 20
53.700000000000003
 30
0.0
 11
50.519615242270739
 21
54.0
 31
0.0
  0
LINE
  5
F23
  8
0
  6
CONTINUOUS
 62
     7
 10
50.519615242270739
 20
53.999999999999993
 30
0.0
 11
52.939330800000022
 21
53.999999999999993
 31
0.0
  0
LINE
  5
F24
  8
0
  6
CONTINUOUS
 62
     7
 10
46.29999999999999
 20
49.999987125000047
 30
0.0
 11
46.0
 21
49.480371882729379
 31
0.0
  0
LINE
  5
F25
  8
0
  6
CONTINUOUS
 62
     7
 10
46.29999999999999
 20
50.000000000000071
 30
0.0
 11
46.0
 21
50.519615242270739
 31
0.0
  0
LINE
  5
F26
  8
0
  6
CONTINUOUS
 62
     7
 10
50.000012874999953
 20
46.29999999999999
 30
0.0
 11
50.519628117270621
 21
46.0
 31
0.0
  0
LINE
  5
F27
  8
0
  6
CONTINUOUS
 62
     7
 10
49.999999999999922
 20
46.29999999999999
 30
0.0
 11
49.480384757729247
 21
46.0
 31
0.0
  0
LINE
  5
F28
  8
0
  6
CONTINUOUS
 62
     7
 10
53.700000000000003
 20
50.000012874999953
 30
0.0
 11
54.0
 21
50.519628117270621
 31
0.0
  0
LINE
  5
F29
  8
0
  6
CONTINUOUS
 62
     7
 10
53.700000000000003
 20
49.999999999999922
 30
0.0
 11
54.0
 21
49.480384757729247
 31
0.0
  0
LINE
  5
F2A
  8
0
  6
CONTINUOUS
 62
     7
 10
54.000000000000107
 20
49.48038475772907
 30
0.0
 11
54.000000000000092
 21
47.060651800000031
 31
0.0
  0
LINE
  5
F2B
  8
0
  6
CONTINUOUS
 62
     7
 10
50.519628117270621
 20
46.0
 30
0.0
 11
52.939322699999281
 21
46.0
 31
0.0
  0
LINE
  5
F2C
  8
0
  6
CONTINUOUS
 62
     7
 10
46.000000000000107
 20
49.48037188272955
 30
0.0
 11
46.000000000000092
 21
47.060662750000112
 31
0.0
  0
LINE
  5
F2D
  8
0
  6
CONTINUOUS
 62
     7
 10
84.999999999999915
 20
50.519628117270749
 30
0.0
 11
135.0
 21
50.519628117270749
 31
0.0
  0
LINE
  5
F2E
  8
0
  6
CONTINUOUS
 62
     7
 10
84.999999999999915
 20
49.48038475772907
 30
0.0
 11
135.0
 21
49.48038475772907
 31
0.0
  0
LINE
  5
F6C
  8
0
  6
CONTINUOUS
 62
     7
 10
84.999999999999915
 20
46.999999999999979
 30
0.0
 11
135.0
 21
46.999999999999993
 31
0.0
  0
LINE
  5
F8E
  8
0
  6
CONTINUOUS
 62
     7
 10
84.999999999999915
 20
52.999999999999979
 30
0.0
 11
135.0
 21
52.999999999999979
 31
0.0
  0
LINE
  5
F8F
  8
0
  6
CONTINUOUS
 62
     7
 10
84.999999999999915
 20
59.599999999999987
 30
0.0
 11
135.0
 21
59.599999999999987
 31
0.0
  0
LINE
  5
F90
  8
0
  6
CONTINUOUS
 62
     7
 10
84.999999999999915
 20
40.399999999999977
 30
0.0
 11
135.0
 21
40.399999999999991
 31
0.0
  0
ARC
  5
1B0B
  8
0
  6
CONTINUOUS
 62
     7
 10
58.999999999999908
 20
59.0
 30
0.0
 40
1.0
 50
0.0
 51
36.869897645843622
  0
ARC
  5
1B0C
  8
0
  6
CONTINUOUS
 62
     7
 10
41.000000000000071
 20
59.0
 30
0.0
 40
1.0
 50
143.13010235415629
 51
180.0
  0
ARC
  5
1B0D
  8
0
  6
CONTINUOUS
 62
     7
 10
41.000000000000071
 20
41.000000000000092
 30
0.0
 40
1.0
 50
180.0000000000008
 51
216.8698976458478
  0
ARC
  5
1B0E
  8
0
  6
CONTINUOUS
 62
     7
 10
58.999999999999893
 20
41.000000000000092
 30
0.0
 40
1.0
 50
323.13010235415169
 51
359.9999999999992
  0
ENDSEC
  0
EOF
